<svg id="wave" style="transform:rotate(0deg); transition: 0.3s" viewBox="0 0 1440 280" version="1.1" xmlns="http://www.w3.org/2000/svg"><defs><linearGradient id="sw-gradient-0" x1="0" x2="0" y1="1" y2="0"><stop stop-color="rgba(0, 55.126, 154.679, 1)" offset="0%"></stop><stop stop-color="rgba(0, 0, 0, 1)" offset="100%"></stop></linearGradient></defs><path style="transform:translate(0, 0px); opacity:1" fill="url(#sw-gradient-0)" d="M0,56L48,79.3C96,103,192,149,288,158.7C384,168,480,140,576,144.7C672,149,768,187,864,182C960,177,1056,131,1152,102.7C1248,75,1344,65,1440,74.7C1536,84,1632,112,1728,135.3C1824,159,1920,177,2016,186.7C2112,196,2208,196,2304,172.7C2400,149,2496,103,2592,88.7C2688,75,2784,93,2880,88.7C2976,84,3072,56,3168,79.3C3264,103,3360,177,3456,196C3552,215,3648,177,3744,172.7C3840,168,3936,196,4032,205.3C4128,215,4224,205,4320,186.7C4416,168,4512,140,4608,112C4704,84,4800,56,4896,79.3C4992,103,5088,177,5184,191.3C5280,205,5376,159,5472,144.7C5568,131,5664,149,5760,140C5856,131,5952,93,6048,74.7C6144,56,6240,56,6336,70C6432,84,6528,112,6624,112C6720,112,6816,84,6864,70L6912,56L6912,280L6864,280C6816,280,6720,280,6624,280C6528,280,6432,280,6336,280C6240,280,6144,280,6048,280C5952,280,5856,280,5760,280C5664,280,5568,280,5472,280C5376,280,5280,280,5184,280C5088,280,4992,280,4896,280C4800,280,4704,280,4608,280C4512,280,4416,280,4320,280C4224,280,4128,280,4032,280C3936,280,3840,280,3744,280C3648,280,3552,280,3456,280C3360,280,3264,280,3168,280C3072,280,2976,280,2880,280C2784,280,2688,280,2592,280C2496,280,2400,280,2304,280C2208,280,2112,280,2016,280C1920,280,1824,280,1728,280C1632,280,1536,280,1440,280C1344,280,1248,280,1152,280C1056,280,960,280,864,280C768,280,672,280,576,280C480,280,384,280,288,280C192,280,96,280,48,280L0,280Z"></path></svg>
